<svg width="48" height="48" viewBox="0 0 48 48" fill="none" xmlns="http://www.w3.org/2000/svg">
<path d="M38.4688 14.3463C38.349 14.2251 38.2145 14.1141 38.0668 14.0157L37.9154 13.9841C37.836 13.9496 37.7729 13.893 37.7316 13.8245C37.495 13.7129 37.2473 13.6409 36.9953 13.6049C36.7777 13.5747 36.6249 13.3727 36.6565 13.1536C36.6858 12.9346 36.8894 12.7817 37.107 12.8118C37.3561 12.8486 37.6059 12.9119 37.8455 13.0059C37.8844 12.831 37.9065 12.6524 37.9065 12.4724C37.9057 12.0784 37.8132 11.6808 37.6162 11.3068C37.3913 10.8791 37.0614 10.5454 36.6755 10.3177C36.3375 10.1178 35.9553 9.99878 35.5629 9.97084C35.5343 10.3287 35.4491 10.6851 35.3006 11.0305C35.2124 11.2333 34.978 11.3267 34.7745 11.2392C34.5716 11.1525 34.4775 10.9173 34.565 10.7145C34.7075 10.3817 34.7745 10.0392 34.776 9.69962L34.7708 9.55487C34.7436 9.08453 34.5878 8.63041 34.3225 8.24312C34.0572 7.8565 33.6854 7.53981 33.2224 7.33919C32.8903 7.19734 32.5463 7.1305 32.2075 7.1305C31.5585 7.1305 30.9302 7.38044 30.4556 7.82125C30.5445 8.12331 30.5952 8.4415 30.5952 8.77225C30.5952 8.99275 30.4144 9.172 30.1939 9.172C29.9734 9.172 29.7934 8.99275 29.7934 8.77225C29.7934 8.44816 29.7339 8.14094 29.6251 7.85509H29.6259C29.4414 7.37378 29.1151 6.95931 28.697 6.66681C28.2803 6.37441 27.7755 6.20312 27.2258 6.20312C26.7489 6.20312 26.3042 6.33325 25.9221 6.55806C25.6164 6.73881 25.3526 6.98284 25.1454 7.26944C25.5503 7.82425 25.7898 8.50994 25.7898 9.24925C25.7898 9.46966 25.6098 9.64825 25.3886 9.64825C25.1681 9.64825 24.9881 9.46966 24.9881 9.24925C24.9881 8.59966 24.7492 8.00875 24.3517 7.55678C23.88 7.01809 23.1914 6.68088 22.4197 6.68088C21.884 6.68088 21.3909 6.84325 20.9786 7.12253C20.5678 7.40181 20.2408 7.79716 20.0475 8.26159C19.9226 8.56506 19.8512 8.89947 19.8512 9.24925C19.8512 9.46966 19.6726 9.64825 19.4515 9.64825C19.2302 9.64825 19.0517 9.46966 19.0517 9.24925C19.0517 8.92441 19.0988 8.61137 19.184 8.31297C18.8827 8.191 18.5565 8.12341 18.2214 8.12341C18.0311 8.12341 17.84 8.14544 17.646 8.18884C17.0757 8.32037 16.5988 8.62759 16.2496 9.04347C15.9983 9.34337 15.819 9.69972 15.7257 10.0826C16.5525 10.0972 17.3784 10.4169 18.0164 11.0416C18.1737 11.1966 18.1766 11.4495 18.0223 11.6067C17.8672 11.7654 17.6144 11.7669 17.4564 11.6132C16.9552 11.1246 16.3093 10.8798 15.6596 10.8791C15.5435 10.8791 15.4274 10.8872 15.3112 10.9019H15.3098H15.309C14.7645 10.9775 14.2398 11.2259 13.8231 11.6507C13.3336 12.1504 13.0911 12.7957 13.0905 13.4468C13.0905 13.818 13.1713 14.1919 13.3329 14.5359C13.4585 14.807 13.635 15.0599 13.8628 15.2818V15.2824C14.12 15.5353 14.4169 15.7219 14.7337 15.8439C14.9386 15.9241 15.0423 16.1555 14.9615 16.3612C14.8815 16.5685 14.6506 16.6714 14.4442 16.5905C14.0305 16.4303 13.6395 16.185 13.3014 15.8535C13.1537 15.708 13.0221 15.5529 12.9054 15.3884C12.6033 15.8212 12.4395 16.3392 12.4395 16.8669C12.4395 17.2756 12.5372 17.6878 12.7437 18.0751C12.9759 18.5087 13.3118 18.8467 13.7071 19.0774C14.0194 19.2604 14.3685 19.3758 14.7286 19.4162L14.7279 19.392C14.7279 19.1803 14.7478 18.9731 14.7838 18.7717C14.8249 18.5542 15.0344 18.4123 15.2505 18.4513C15.468 18.4917 15.6113 18.7004 15.5723 18.9179C15.5436 19.0714 15.5282 19.2309 15.5282 19.3919L15.5348 19.5779L15.5561 19.7653V19.7674L15.5568 19.7711C15.7406 21.0263 16.8253 21.9647 18.0951 21.9647L18.2796 21.9573H18.2804C18.8432 21.9169 19.3488 21.6993 19.7501 21.3606C20.0315 21.1232 20.2622 20.8257 20.4203 20.4904C20.5136 20.2898 20.7539 20.2047 20.9531 20.2994C21.153 20.3935 21.2383 20.6315 21.1441 20.8315C20.973 21.1923 20.7392 21.5178 20.4585 21.7949C20.6158 22.2784 20.9112 22.6937 21.297 23.0023C21.738 23.3558 22.2943 23.5645 22.8954 23.5645L23.0806 23.5572H23.0814C23.462 23.53 23.814 23.4205 24.1264 23.25C24.0779 23.02 24.05 22.7849 24.05 22.5467C24.05 22.0558 24.1595 21.5553 24.3858 21.085C24.4821 20.8859 24.7209 20.8028 24.9194 20.8991C25.1185 20.9939 25.203 21.2335 25.1068 21.4326C24.9326 21.7935 24.851 22.1727 24.851 22.5467C24.851 22.8083 24.8914 23.0692 24.9693 23.3168H24.9701C25.1751 23.9702 25.6381 24.5412 26.3046 24.8615C26.6647 25.0357 27.0439 25.1173 27.4172 25.1173C28.0103 25.1173 28.5901 24.91 29.0502 24.5345L29.0517 24.5338C29.331 24.3037 29.5647 24.0127 29.7329 23.6651L29.7336 23.6636C29.8902 23.3388 29.9725 22.9986 29.9864 22.6591C29.9967 22.4386 30.1826 22.2666 30.4045 22.2769C30.625 22.2865 30.7954 22.4731 30.7859 22.6936C30.7667 23.1389 30.6587 23.5886 30.4537 24.0126V24.0119C30.2891 24.3551 30.0723 24.6572 29.8181 24.9151C30.2898 25.5926 31.0747 26.0196 31.9235 26.0189C32.0807 26.0189 32.241 26.0042 32.4019 25.9733C33.0199 25.8572 33.541 25.5302 33.9114 25.0804C34.281 24.6299 34.4964 24.0574 34.4964 23.4533L34.4956 23.399V23.396C34.4927 23.2601 34.4788 23.1176 34.4523 22.9742C34.3884 22.6339 34.2583 22.3252 34.0798 22.0526C33.8211 21.8248 33.5338 21.5272 33.2626 21.1965C32.9738 20.8438 32.7078 20.4579 32.5292 20.0692C32.4117 19.8091 32.3279 19.546 32.3264 19.269C32.3264 19.1462 32.3432 19.0191 32.3895 18.8972C32.4344 18.7729 32.5079 18.6554 32.6063 18.5583C32.7621 18.4033 33.0149 18.4033 33.1714 18.5583C33.3272 18.7156 33.3272 18.9698 33.1714 19.125L33.1412 19.1728L33.1259 19.2691C33.1244 19.3697 33.1663 19.5403 33.2566 19.7364C33.3463 19.932 33.4793 20.1516 33.6359 20.3684C33.946 20.8027 34.348 21.229 34.6507 21.4891L34.6919 21.5244L34.722 21.5692C34.9697 21.9381 35.1512 22.3629 35.2386 22.8266V22.8273L35.2673 23.0257L35.3871 23.0309C35.8942 23.0301 36.4049 22.8802 36.8539 22.5649C37.2111 22.3136 37.483 21.991 37.6667 21.6287C37.8511 21.2657 37.9474 20.8644 37.9474 20.4602C37.9474 20.0818 37.8621 19.7018 37.6917 19.3484C37.5336 19.3991 37.3734 19.4395 37.211 19.4674C36.9935 19.5063 36.787 19.3586 36.7481 19.1412C36.7112 18.9229 36.8583 18.7172 37.0758 18.6789C37.7842 18.5569 38.4331 18.144 38.8344 17.4811C39.0886 17.0644 39.2085 16.6058 39.2085 16.1524C39.2085 15.4844 38.9505 14.8311 38.4699 14.3468L38.4688 14.3463ZM20.1358 11.2937C20.5179 10.8417 21.025 10.5205 21.5702 10.3103C22.1177 10.1001 22.7041 9.99944 23.2671 9.99944C23.8146 10.0002 24.3407 10.0928 24.7875 10.3001C24.9874 10.3911 25.0749 10.63 24.9823 10.8306C24.8904 11.0306 24.653 11.1187 24.451 11.0262C24.1424 10.8814 23.7197 10.7984 23.2671 10.7984C22.8012 10.7984 22.3045 10.8842 21.8583 11.0578C21.4123 11.229 21.0206 11.4847 20.745 11.8096C20.6039 11.9786 20.3504 12.0006 20.1813 11.8566C20.013 11.714 19.9918 11.4619 20.1358 11.2937ZM29.2424 20.7544C28.7772 20.7544 28.3553 20.7016 27.9703 20.6127C27.9806 20.7228 27.9879 20.8456 27.9879 20.9757C27.9879 21.2366 27.9592 21.5348 27.8776 21.8479C27.7953 22.1602 27.6565 22.4887 27.4375 22.804C27.3119 22.9862 27.0627 23.0311 26.8812 22.9053C26.6989 22.7796 26.6549 22.5313 26.779 22.3483C26.9406 22.1153 27.0413 21.8772 27.1031 21.6428C27.1649 21.4084 27.1876 21.1805 27.1876 20.9756C27.1884 20.6927 27.145 20.4597 27.1141 20.3267C26.9187 20.2384 26.7386 20.1392 26.5704 20.0282C25.9002 19.5947 25.452 19.0222 25.1704 18.4776C24.9816 18.1124 24.8669 17.7597 24.8052 17.4532C24.7699 17.2783 24.7523 17.1197 24.7523 16.9755C24.7523 16.7536 24.9316 16.5742 25.1528 16.5742C25.374 16.5742 25.5533 16.7536 25.5533 16.9755C25.5525 17.0915 25.5776 17.2863 25.6408 17.5076C25.704 17.7295 25.8046 17.9816 25.9501 18.2351C26.2419 18.7451 26.7056 19.2558 27.4214 19.5873C27.8998 19.8092 28.495 19.9532 29.2424 19.9532C29.4635 19.9532 29.6429 20.1326 29.6429 20.3537C29.6429 20.5752 29.4636 20.7544 29.2424 20.7544ZM32.0599 17.8325C31.9776 18.0369 31.7446 18.1368 31.5389 18.0552C31.3338 17.9729 31.2354 17.7414 31.3162 17.5364V17.5356L31.3185 17.5297L31.3303 17.4945L31.3714 17.3505C31.4016 17.2241 31.4325 17.0455 31.4325 16.8493L31.4317 16.8213C30.882 17.008 30.372 17.0917 29.9025 17.0917C29.1926 17.0932 28.5782 16.8985 28.0785 16.6031C27.578 16.3078 27.1886 15.9167 26.8975 15.5192C26.5668 15.0687 26.1332 14.6645 25.6365 14.3787C25.1383 14.092 24.5812 13.9216 23.9896 13.9201C23.4716 13.9216 22.9204 14.0508 22.345 14.3669C21.799 14.6667 21.4477 15.0657 21.2206 15.5037C20.9951 15.9424 20.8995 16.4215 20.9002 16.8581C20.8987 17.2622 20.984 17.6282 21.0949 17.859C21.1897 18.0588 21.1037 18.297 20.9046 18.3917C20.7055 18.4866 20.4666 18.4006 20.3718 18.2014C20.1976 17.8324 20.1007 17.368 20.0992 16.8581C20.1 16.351 20.2006 15.7968 20.4483 15.2671C19.9516 15.3796 19.4901 15.4295 19.0697 15.4295C18.8427 15.4295 18.6287 15.4148 18.4252 15.3884L18.351 15.5383L18.3502 15.5397L18.3443 15.5457L18.323 15.5729L18.2377 15.6889C18.165 15.7934 18.0643 15.9454 17.9548 16.1394C17.7365 16.5238 17.4867 17.0661 17.3654 17.6752C17.322 17.8921 17.1119 18.0339 16.895 17.9897C16.6783 17.9464 16.5371 17.7362 16.582 17.518C16.726 16.7956 17.0105 16.1812 17.2581 15.744C17.3874 15.5177 17.5058 15.3384 17.5924 15.2163C17.2662 15.1187 16.984 14.9988 16.7533 14.8768C16.2264 14.5968 15.9522 14.3161 15.9287 14.2933C15.7758 14.1338 15.7802 13.881 15.939 13.7274C16.0984 13.5746 16.3505 13.579 16.5041 13.7362L16.5086 13.7406L16.532 13.7634L16.6467 13.8596C16.7509 13.9419 16.912 14.0552 17.1272 14.1697C17.5593 14.3975 18.2046 14.6283 19.0695 14.6298C19.6772 14.6298 20.3938 14.5138 21.2264 14.1933C21.4373 13.9971 21.6805 13.8179 21.9598 13.665C22.6447 13.2895 23.3347 13.1205 23.9895 13.1205C24.7376 13.1205 25.4335 13.3381 26.0361 13.6848C26.6387 14.0332 27.1495 14.5101 27.5426 15.0466C27.7815 15.3706 28.0952 15.6844 28.484 15.9129C28.875 16.1422 29.3371 16.2915 29.9023 16.2921C30.2895 16.2921 30.726 16.2201 31.2199 16.0467C31.0995 15.8534 30.9201 15.6667 30.6247 15.4977C30.4321 15.3882 30.3638 15.1442 30.4725 14.9524C30.582 14.7591 30.8253 14.6929 31.0178 14.8003C31.491 15.0671 31.8078 15.4205 31.9915 15.7902C32.1774 16.1583 32.2325 16.5317 32.2325 16.8492C32.2304 17.4034 32.0709 17.8039 32.0599 17.8325ZM31.91 12.9302C30.9752 12.9302 30.1574 12.6782 29.496 12.2968C29.4027 12.4262 29.2777 12.5885 29.1167 12.7649C28.7545 13.1625 28.2224 13.6292 27.5103 13.8848C27.3009 13.9583 27.0731 13.8511 26.9988 13.6424C26.9246 13.4336 27.0341 13.2051 27.2406 13.1316C27.7661 12.9442 28.2055 12.5761 28.5098 12.2432C28.6509 12.091 28.7604 11.947 28.8398 11.8368C28.4451 11.5032 28.1336 11.1232 27.9197 10.7323C27.717 10.3575 27.5993 9.97094 27.5979 9.59537C27.5979 9.37497 27.7772 9.19562 27.9984 9.19562C28.2189 9.19562 28.3981 9.37497 28.3981 9.59537C28.3966 9.7975 28.4672 10.0672 28.623 10.3502C28.7765 10.6337 29.0102 10.9292 29.316 11.1938C29.9274 11.7237 30.81 12.1292 31.9101 12.1292C32.1313 12.1292 32.3099 12.3093 32.3099 12.5305C32.3098 12.7509 32.1312 12.9302 31.91 12.9302ZM35.064 18.5645C34.9237 18.7336 34.6709 18.7585 34.5004 18.6167C34.33 18.4763 34.3065 18.2236 34.446 18.0538C34.8825 17.5239 35.0435 16.9904 35.0449 16.4797C35.0464 16.0145 34.9038 15.5655 34.6804 15.1871C34.4599 14.8093 34.155 14.5066 33.8618 14.3383C33.6648 14.2251 33.4797 14.1744 33.3327 14.1744C33.1114 14.1744 32.9329 13.9959 32.9329 13.7747C32.9329 13.5535 33.1115 13.3742 33.3327 13.3742C33.5759 13.3742 33.814 13.4337 34.0404 13.5336C34.266 13.6322 34.4791 13.7725 34.6775 13.9438C35.0736 14.2862 35.4102 14.7521 35.6219 15.2982C35.7615 15.6626 35.8467 16.0624 35.8467 16.4798C35.8474 17.1661 35.613 17.9009 35.064 18.5645Z" fill="#000021"/>
<path d="M16.168 38.6133L16.1953 38.6376C16.1945 38.6368 16.1945 38.6368 16.1937 38.6361L16.168 38.6133Z" fill="#000021"/>
<path d="M40.1904 6.24131C37.2133 2.76019 32.7358 0.389531 26.9985 0.0433125C26.5319 0.014625 26.0674 0 25.6074 0C20.7822 0 16.3435 1.56675 13.0895 4.44309C9.8333 7.31203 7.80577 11.5126 7.81308 16.5436C7.81308 16.6575 7.81383 16.7714 7.81598 16.8861L7.81092 17.493L3.66914 24.8072C3.44648 25.2018 3.33398 25.642 3.33398 26.0823C3.33398 26.4496 3.41198 26.8186 3.56986 27.1625C3.90427 27.8922 4.56192 28.4169 5.34089 28.5977L5.33939 28.6042L7.2442 29.129L7.99673 36.3874L8.00264 36.3866C8.05561 37.4441 8.52736 38.4369 9.32845 39.1336C10.0406 39.7538 10.9496 40.0904 11.8844 40.0904C11.979 40.0904 12.0724 40.0816 12.1665 40.075L14.3249 40.2462L14.433 40.2345L14.4675 40.233C14.5504 40.233 14.6277 40.2624 14.6872 40.3161L14.6908 40.3198C14.7592 40.3815 14.7996 40.4719 14.7996 40.5645V48H34.9521V46.8713C34.9521 46.8713 34.9521 43.8135 34.9521 42.5936C34.9499 42.1027 35.0476 41.132 35.2402 40.1957C35.3357 39.7262 35.454 39.258 35.5878 38.8532C35.7201 38.449 35.873 38.1051 36.0008 37.9044C37.3412 35.7439 39.2365 33.9714 40.9722 31.4647C42.7058 28.9603 44.1836 25.7114 44.5885 20.7818C44.6399 20.1638 44.6657 19.5457 44.6657 18.9307C44.6657 14.2574 43.1725 9.71944 40.1904 6.24131ZM42.3384 20.5935C41.9467 25.1755 40.665 27.9173 39.1129 30.1844C37.5631 32.4493 35.6466 34.2299 34.0864 36.7073C33.8145 37.1453 33.6153 37.6303 33.4441 38.1461C33.1899 38.9185 33.0084 39.7607 32.8842 40.5448C32.7607 41.3311 32.6954 42.044 32.6946 42.5936C32.6946 43.377 32.6946 44.5616 32.6946 45.7425H17.0571V40.5646C17.0571 39.8289 16.7441 39.1286 16.1957 38.6371C15.7173 38.2072 15.1001 37.9749 14.4674 37.9749C14.421 37.9749 14.3762 37.98 14.3307 37.983L12.1746 37.8111L12.0688 37.8228L11.8844 37.8331C11.4919 37.8331 11.1098 37.6912 10.8106 37.4311C10.4653 37.1305 10.2609 36.6984 10.2477 36.2392L10.247 36.1966L9.33136 27.3634L5.89945 26.4169L5.8583 26.4088C5.75395 26.3882 5.66658 26.3191 5.62167 26.2221L5.59148 26.0825L5.63414 25.9193L10.0639 18.0966L10.0735 16.8744V16.8582C10.0713 16.7525 10.0706 16.648 10.0706 16.5438C10.078 12.114 11.7997 8.60709 14.5849 6.13425C17.373 3.66722 21.2665 2.25769 25.6074 2.25769C26.0211 2.25769 26.4386 2.27091 26.859 2.29669L26.9287 1.17009L26.8596 2.29669C32.0574 2.62369 35.8832 4.69753 38.4765 7.71122C41.0655 10.7272 42.4082 14.7329 42.4082 18.9307C42.4082 19.4824 42.3854 20.0372 42.3384 20.5935Z" fill="#000021"/>
</svg>
