<svg width="48" height="48" viewBox="0 0 48 48" fill="none" xmlns="http://www.w3.org/2000/svg">
<path d="M24 29.5C23.18 29.5 22.5 28.82 22.5 28V18C22.5 17.18 23.18 16.5 24 16.5C24.82 16.5 25.5 17.18 25.5 18V28C25.5 28.82 24.82 29.5 24 29.5Z" fill="#000021"/>
<path d="M24 36.0011C23.88 36.0011 23.74 35.9811 23.6 35.9611C23.48 35.9411 23.36 35.9011 23.24 35.8411C23.12 35.8011 23 35.7411 22.88 35.6611C22.78 35.5811 22.68 35.5011 22.58 35.4211C22.22 35.0411 22 34.5211 22 34.0011C22 33.4811 22.22 32.9611 22.58 32.5811C22.68 32.5011 22.78 32.4211 22.88 32.3411C23 32.2611 23.12 32.2011 23.24 32.1611C23.36 32.1011 23.48 32.0611 23.6 32.0411C23.86 31.9811 24.14 31.9811 24.38 32.0411C24.52 32.0611 24.64 32.1011 24.76 32.1611C24.88 32.2011 25 32.2611 25.12 32.3411C25.22 32.4211 25.32 32.5011 25.42 32.5811C25.78 32.9611 26 33.4811 26 34.0011C26 34.5211 25.78 35.0411 25.42 35.4211C25.32 35.5011 25.22 35.5811 25.12 35.6611C25 35.7411 24.88 35.8011 24.76 35.8411C24.64 35.9011 24.52 35.9411 24.38 35.9611C24.26 35.9811 24.12 36.0011 24 36.0011Z" fill="#000021"/>
<path d="M36.121 44.3197H11.8809C7.98093 44.3197 5.00093 42.8997 3.48093 40.3397C1.98092 37.7797 2.18093 34.4797 4.08093 31.0597L16.2009 9.25969C18.2009 5.65969 20.961 3.67969 24.001 3.67969C27.041 3.67969 29.801 5.65969 31.801 9.25969L43.921 31.0797C45.821 34.4997 46.041 37.7797 44.521 40.3597C43.001 42.8997 40.021 44.3197 36.121 44.3197ZM24.001 6.67969C22.121 6.67969 20.281 8.11969 18.8209 10.7197L6.72093 32.5397C5.36093 34.9797 5.14093 37.2197 6.08093 38.8397C7.02093 40.4597 9.10093 41.3397 11.9009 41.3397H36.141C38.941 41.3397 41.001 40.4597 41.961 38.8397C42.921 37.2197 42.681 34.9997 41.321 32.5397L29.181 10.7197C27.721 8.11969 25.881 6.67969 24.001 6.67969Z" fill="#000021"/>
</svg>
