<svg width="48" height="48" viewBox="0 0 48 48" fill="none" xmlns="http://www.w3.org/2000/svg">
<g clip-path="url(#clip0_330_1425)">
<path d="M16.237 15.8481C17.5648 17.0033 19.4241 17.4755 21.1445 17.1165C22.8088 16.7696 24.2623 15.6454 25.0417 14.1378C26.7037 10.9228 24.8417 6.89489 21.3508 6.01185C18.922 5.39746 16.3022 6.50851 15.0401 8.67018C13.6766 11.0044 14.1952 14.0816 16.237 15.8481Z" fill="#000021"/>
<path d="M47.9966 34.5669C47.9213 33.0394 46.622 31.862 45.0945 31.9372L29.5613 32.7021C29.2729 28.7649 29.8237 22.4023 30.1926 21.5132C30.2598 21.4166 30.3222 21.3151 30.3781 21.2078L38.3873 5.80647C38.9459 4.72708 38.5731 3.38081 37.5138 2.75487C36.4165 2.10651 35.0015 2.47045 34.3529 3.56772C34.3529 3.56772 26.9036 15.5794 23.1664 17.1206C19.4294 18.6618 5.04884 22.2911 5.04884 22.2911C3.88493 22.6347 3.17104 23.8336 3.45058 25.0305C3.74045 26.2717 4.98154 27.0428 6.22275 26.7529L17.3143 24.0014L17.5587 34.9277L1.89019 40.1733C0.508157 40.6389 -0.292696 42.1116 0.0996784 43.5352C0.506047 45.0095 2.03079 45.8753 3.50511 45.4689L23.5959 39.9311C28.6052 38.6169 45.5161 37.4576 45.5161 37.4576C46.9665 37.3043 48.0692 36.0415 47.9966 34.5669Z" fill="#000021"/>
</g>
<defs>
<clipPath id="clip0_330_1425">
<rect width="48" height="48" fill="white"/>
</clipPath>
</defs>
</svg>
