<svg width="40" height="42" viewBox="0 0 40 42" fill="none" xmlns="http://www.w3.org/2000/svg">
<path fill-rule="evenodd" clip-rule="evenodd" d="M20.104 0.500002H19.896C18.099 0.499942 16.6006 0.499902 15.411 0.659822C14.1555 0.828642 13.0219 1.19998 12.1109 2.11092C11.2 3.02186 10.8286 4.15546 10.6598 5.41104C10.5452 6.26378 10.5127 8.30294 10.5036 10.0513C6.45908 10.1834 4.03072 10.6556 2.34314 12.3431C2.38419e-07 14.6863 0 18.4576 0 26C0 33.5424 2.38419e-07 37.3138 2.34314 39.6568C4.68628 42 8.45752 42 16 42H24C31.5424 42 35.3138 42 37.6568 39.6568C40 37.3138 40 33.5424 40 26C40 18.4576 40 14.6863 37.6568 12.3431C35.9692 10.6556 33.541 10.1834 29.4964 10.0513C29.4872 8.30294 29.4548 6.26378 29.3402 5.41104C29.1714 4.15546 28.8 3.02186 27.889 2.11092C26.9782 1.19998 25.8446 0.828642 24.589 0.659822C23.3994 0.499902 21.901 0.499942 20.104 0.500002ZM26.4958 10.0038C26.4868 8.31046 26.458 6.48814 26.367 5.8108C26.2428 4.88786 26.0284 4.49288 25.7678 4.23224C25.5072 3.9716 25.1122 3.75716 24.1892 3.63308C23.2232 3.5032 21.928 3.5 20 3.5C18.072 3.5 16.7768 3.5032 15.8108 3.63308C14.8879 3.75716 14.4929 3.9716 14.2322 4.23224C13.9716 4.49288 13.7572 4.88786 13.6331 5.8108C13.542 6.48814 13.5132 8.31046 13.5042 10.0038C14.287 10 15.1177 10 16 10H24C24.8824 10 25.713 10 26.4958 10.0038ZM20 16.5C20.8284 16.5 21.5 17.1716 21.5 18V18.0204C23.6776 18.569 25.5 20.286 25.5 22.6666C25.5 23.495 24.8284 24.1666 24 24.1666C23.1716 24.1666 22.5 23.495 22.5 22.6666C22.5 21.8986 21.6484 20.8334 20 20.8334C18.3516 20.8334 17.5 21.8986 17.5 22.6666C17.5 23.4348 18.3516 24.5 20 24.5C22.7698 24.5 25.5 26.4196 25.5 29.3334C25.5 31.714 23.6776 33.431 21.5 33.9796V34C21.5 34.8284 20.8284 35.5 20 35.5C19.1716 35.5 18.5 34.8284 18.5 34V33.9796C16.3224 33.431 14.5 31.714 14.5 29.3334C14.5 28.505 15.1716 27.8334 16 27.8334C16.8284 27.8334 17.5 28.505 17.5 29.3334C17.5 30.1014 18.3516 31.1666 20 31.1666C21.6484 31.1666 22.5 30.1014 22.5 29.3334C22.5 28.5652 21.6484 27.5 20 27.5C17.2302 27.5 14.5 25.5806 14.5 22.6666C14.5 20.286 16.3224 18.569 18.5 18.0204V18C18.5 17.1716 19.1716 16.5 20 16.5Z" fill="#000021"/>
</svg>
