<svg width="40" height="40" viewBox="0 0 40 40" fill="none" xmlns="http://www.w3.org/2000/svg">
<path d="M15.0578 9.94037L10.8192 14.1662C10.0401 14.9429 9.32545 15.6554 8.76105 16.2995C8.3986 16.7131 8.0364 17.1659 7.7296 17.6661L7.6883 17.6249C7.6099 17.5468 7.57067 17.5076 7.5313 17.4694C6.79459 16.7546 5.928 16.1863 4.97792 15.7949C4.92715 15.7739 4.87562 15.7535 4.77255 15.7127L4.14147 15.4626C3.28654 15.1239 3.05869 14.0233 3.70922 13.3747C5.57624 11.5133 7.81785 9.27852 8.89967 8.82965C9.85374 8.4338 10.8844 8.30208 11.8784 8.44898C12.7892 8.58358 13.6508 9.05142 15.0578 9.94037Z" fill="#2458A3"/>
<path d="M22.2949 32.1887C22.6364 32.5354 22.8633 32.7802 23.0684 33.0419C23.3389 33.3871 23.5809 33.7539 23.7918 34.1382C24.0291 34.5711 24.2134 35.0334 24.5821 35.9581C24.8821 36.7109 25.8791 36.9099 26.4581 36.3326L26.5981 36.1929C28.4651 34.3314 30.7066 32.0966 31.1568 31.0181C31.5539 30.0667 31.6859 29.0392 31.5386 28.0482C31.4036 27.1402 30.9346 26.2814 30.0431 24.8789L25.7904 29.1189C24.9936 29.9132 24.2631 30.6417 23.6024 31.2122C23.2064 31.5542 22.7733 31.8961 22.2949 32.1887Z" fill="#2458A3"/>
<path fill-rule="evenodd" clip-rule="evenodd" d="M24.0782 27.2935L33.8228 17.578C35.2263 16.1789 35.928 15.4793 36.2975 14.5897C36.6671 13.7 36.6672 12.7107 36.6672 10.732V9.78665C36.6672 6.74391 36.6672 5.22255 35.719 4.27728C34.771 3.33203 33.245 3.33203 30.1931 3.33203H29.245C27.2603 3.33203 26.268 3.33203 25.3757 3.70053C24.4833 4.06903 23.7817 4.76861 22.3783 6.1678L12.6335 15.8833C10.9936 17.5182 9.97683 18.532 9.58308 19.5112C9.45868 19.8205 9.39648 20.1265 9.39648 20.4474C9.39648 21.7842 10.4755 22.86 12.6335 25.0115L12.9235 25.3007L16.3211 21.8525C16.8057 21.3607 17.597 21.3549 18.0888 21.8394C18.5805 22.3239 18.5863 23.1154 18.1018 23.6072L14.694 27.0659L14.9224 27.2935C17.0805 29.4452 18.1595 30.5209 19.5003 30.5209C19.7965 30.5209 20.08 30.4684 20.3652 30.3634C21.3707 29.993 22.397 28.9697 24.0782 27.2935ZM28.6562 15.884C27.392 17.1444 25.3425 17.1444 24.0783 15.884C22.8142 14.6237 22.8142 12.5803 24.0783 11.3199C25.3425 10.0596 27.392 10.0596 28.6562 11.3199C29.9203 12.5803 29.9203 14.6237 28.6562 15.884Z" fill="#2458A3"/>
</svg>
