<svg width="48" height="48" viewBox="0 0 48 48" fill="none" xmlns="http://www.w3.org/2000/svg">
<path d="M15.0607 29.0607C14.4749 29.6464 13.5251 29.6464 12.9393 29.0607C12.3536 28.4749 12.3536 27.5252 12.9393 26.9394L17.5251 22.3536C18.892 20.9868 21.108 20.9868 22.4748 22.3536L25.6464 25.5252C25.8418 25.7204 26.1582 25.7204 26.3536 25.5252L30.3786 21.5H29C28.1716 21.5 27.5 20.8284 27.5 20C27.5 19.1716 28.1716 18.5 29 18.5H34C34.8284 18.5 35.5 19.1716 35.5 20V25C35.5 25.8284 34.8284 26.5 34 26.5C33.1716 26.5 32.5 25.8284 32.5 25V23.6214L28.4748 27.6464C27.108 29.0133 24.892 29.0133 23.5252 27.6464L20.3536 24.4748C20.1582 24.2796 19.8417 24.2796 19.6464 24.4748L15.0607 29.0607Z" fill="#000021"/>
<path fill-rule="evenodd" clip-rule="evenodd" d="M23.8852 45.5C19.2685 45.5 15.6504 45.5 12.8274 45.1205C9.93794 44.732 7.6579 43.9213 5.86828 42.1317C4.07866 40.3421 3.26798 38.0621 2.8795 35.1726C2.49996 32.3496 2.49998 28.7315 2.5 24.1148V23.8852C2.49998 19.2684 2.49996 15.6504 2.8795 12.8274C3.26798 9.938 4.07866 7.6578 5.86828 5.8682C7.6579 4.0786 9.93794 3.268 12.8274 2.8794C15.6504 2.5 19.2685 2.5 23.8852 2.5H24.1148C28.7316 2.5 32.3496 2.5 35.1726 2.8794C38.062 3.268 40.3422 4.0786 42.1318 5.8682C43.9214 7.6578 44.732 9.938 45.1206 12.8274C45.5 15.6504 45.5 19.2684 45.5 23.8852V24.1148C45.5 28.7315 45.5 32.3496 45.1206 35.1726C44.732 38.0621 43.9214 40.3421 42.1318 42.1317C40.3422 43.9213 38.062 44.732 35.1726 45.1205C32.3496 45.5 28.7316 45.5 24.1148 45.5H23.8852ZM7.9896 40.0104C9.1289 41.1497 10.6703 41.8035 13.2272 42.1473C15.8271 42.4968 19.2436 42.5 24 42.5C28.7564 42.5 32.1728 42.4968 34.7728 42.1473C37.3296 41.8035 38.871 41.1497 40.0104 40.0104C41.1498 38.8711 41.8036 37.3297 42.1472 34.7728C42.4968 32.1729 42.5 28.7564 42.5 24C42.5 19.2436 42.4968 15.8272 42.1472 13.2272C41.8036 10.6704 41.1498 9.129 40.0104 7.9896C38.871 6.8502 37.3296 6.1964 34.7728 5.8528C32.1728 5.5032 28.7564 5.5 24 5.5C19.2436 5.5 15.8271 5.5032 13.2272 5.8528C10.6703 6.1964 9.1289 6.8502 7.9896 7.9896C6.85028 9.129 6.1965 10.6704 5.85274 13.2272C5.50318 15.8272 5.5 19.2436 5.5 24C5.5 28.7564 5.50318 32.1729 5.85274 34.7728C6.1965 37.3297 6.85028 38.8711 7.9896 40.0104Z" fill="#000021"/>
</svg>
