<svg width="32" height="32" viewBox="0 0 32 32" fill="none" xmlns="http://www.w3.org/2000/svg">
<path d="M13.7238 27.115C16.0245 27.1173 18.2865 26.523 20.2888 25.39L25.8422 30.9433C26.5187 31.6198 27.4363 31.9999 28.393 31.9999C29.3498 31.9999 30.2673 31.6198 30.9438 30.9433C31.6204 30.2668 32.0004 29.3492 32.0004 28.3925C32.0004 27.4357 31.6204 26.5182 30.9438 25.8416L25.3855 20.2833C26.8224 17.7212 27.376 14.7573 26.9608 11.8493C26.5456 8.94124 25.1847 6.25072 23.0882 4.1931C20.9917 2.13549 18.2762 0.825195 15.3609 0.464514C12.4456 0.103833 9.49261 0.712822 6.95786 2.19746C4.42311 3.6821 2.44754 5.95984 1.33614 8.67901C0.224749 11.3982 0.0393377 14.4076 0.808533 17.2426C1.57773 20.0777 3.25875 22.5807 5.59209 24.3653C7.92542 26.1498 10.7813 27.1167 13.7188 27.1166L13.7238 27.115ZM6.61385 6.6133C8.25908 4.96882 10.4236 3.94565 12.7386 3.7181C15.0536 3.49056 17.3759 4.07272 19.3099 5.3654C21.2438 6.65808 22.6697 8.58131 23.3446 10.8074C24.0196 13.0335 23.9018 15.4248 23.0114 17.5738C22.1209 19.7228 20.513 21.4966 18.4614 22.593C16.4098 23.6894 14.0415 24.0405 11.76 23.5866C9.47859 23.1326 7.4251 21.9017 5.94943 20.1035C4.47375 18.3054 3.6672 16.0511 3.66718 13.725C3.66305 12.4035 3.9214 11.0944 4.42724 9.87359C4.93307 8.65278 5.67632 7.54458 6.61385 6.6133ZM5.44718 13.725C5.44582 13.2797 5.62003 12.8519 5.93203 12.5343C6.24403 12.2167 6.66867 12.0349 7.11385 12.0283C7.33125 12.025 7.54714 12.0649 7.74899 12.1457C7.95085 12.2265 8.13464 12.3466 8.28969 12.499C8.44475 12.6515 8.56798 12.8332 8.65224 13.0336C8.7365 13.234 8.7801 13.4492 8.78051 13.6666V13.725C8.78184 15.0357 9.30336 16.2924 10.2305 17.219C11.1577 18.1455 12.4147 18.6662 13.7255 18.6666C14.1675 18.6666 14.5915 18.8422 14.904 19.1548C15.2166 19.4673 15.3922 19.8913 15.3922 20.3333C15.3922 20.7753 15.2166 21.1992 14.904 21.5118C14.5915 21.8244 14.1675 22 13.7255 22C11.5315 21.9973 9.42809 21.1247 7.87654 19.5735C6.32498 18.0222 5.45027 15.919 5.44718 13.725Z" fill="#2458A3"/>
</svg>
