<svg width="40" height="40" viewBox="0 0 40 40" fill="none" xmlns="http://www.w3.org/2000/svg">
<g clip-path="url(#clip0_330_1474)">
<path d="M28.3941 -0.0117188H11.6258C4.34216 -0.0117188 0 4.33044 0 11.6141V28.3624C0 35.6661 4.34216 40.0082 11.6258 40.0082H28.3741C35.6578 40.0082 39.9999 35.6661 39.9999 28.3824V11.6141C40.0199 4.33044 35.6778 -0.0117188 28.3941 -0.0117188ZM29.5747 15.396L18.2291 26.7416C17.9489 27.0218 17.5688 27.1818 17.1686 27.1818C16.7684 27.1818 16.3882 27.0218 16.108 26.7416L10.4452 21.0788C9.86491 20.4985 9.86491 19.538 10.4452 18.9577C11.0255 18.3774 11.986 18.3774 12.5663 18.9577L17.1686 23.56L27.4537 13.2749C28.034 12.6946 28.9944 12.6946 29.5747 13.2749C30.155 13.8552 30.155 14.7957 29.5747 15.396Z" fill="#2458A3"/>
</g>
<defs>
<clipPath id="clip0_330_1474">
<rect width="40" height="40" fill="white"/>
</clipPath>
</defs>
</svg>
