<svg width="34" height="34" viewBox="0 0 34 34" fill="none" xmlns="http://www.w3.org/2000/svg">
<path d="M33.1899 4.31203C33.1865 4.04227 33.0363 3.79171 32.7939 3.67027C32.5524 3.54595 32.2625 3.56851 32.0412 3.72499L29.1881 5.77075L28.9635 5.93203C25.8891 2.86435 21.6694 0.945312 16.9932 0.945312C10.6169 0.945312 5.0518 4.47523 2.14156 9.68179L2.15308 9.68803C1.89004 10.2559 2.09356 10.9394 2.64556 11.2581L2.64652 11.2586L6.5518 13.5132C7.13644 13.8511 7.88476 13.6509 8.2222 13.0658C8.22508 13.0605 8.22652 13.0548 8.2294 13.0495C9.95308 9.97555 13.2396 7.89091 17.0081 7.89091C19.35 7.89091 21.4971 8.70499 23.2068 10.0509L22.7264 10.396L19.8713 12.4418C19.6529 12.5988 19.5372 12.869 19.578 13.1364C19.6169 13.4042 19.8041 13.6298 20.0619 13.7162L32.2764 17.8773C32.4977 17.9551 32.7401 17.9176 32.9326 17.7799C33.1241 17.6407 33.2345 17.4218 33.2336 17.1895L33.1899 4.31203Z" fill="#000021"/>
<path d="M31.3536 22.7373L31.3527 22.7368L27.4474 20.4822C26.8628 20.1443 26.1144 20.3445 25.777 20.9296C25.7741 20.9349 25.7727 20.9406 25.7698 20.9459C24.0461 24.0198 20.7596 26.1045 16.9911 26.1045C14.6491 26.1045 12.5021 25.2904 10.7924 23.9445L11.2728 23.5994L14.1279 21.5536C14.3463 21.3966 14.462 21.1264 14.4212 20.859C14.3823 20.5912 14.1951 20.3656 13.9373 20.2792L1.72275 16.1181C1.50147 16.0403 1.25907 16.0778 1.06659 16.2155C0.875071 16.3547 0.764671 16.5736 0.765631 16.8059L0.809791 29.6834C0.813151 29.9531 0.963391 30.2037 1.20579 30.3251C1.44723 30.4494 1.73715 30.4269 1.95843 30.2704L4.81155 28.2246L5.03619 28.0634C8.11059 31.131 12.3303 33.0501 17.0064 33.0501C23.3828 33.0501 28.9479 29.5202 31.8581 24.3136L31.8461 24.3078C32.1092 23.7395 31.9061 23.0565 31.3536 22.7373Z" fill="#000021"/>
</svg>
