<svg width="40" height="40" viewBox="0 0 40 40" fill="none" xmlns="http://www.w3.org/2000/svg">
<path fill-rule="evenodd" clip-rule="evenodd" d="M22.8209 8.33875L10.7222 20.4375C10.5509 20.61 10.4322 20.8275 10.3834 21.065L8.52467 29.9212C8.43842 30.3325 8.56467 30.76 8.86092 31.0575C9.15592 31.3563 9.58217 31.4862 9.99342 31.4037L18.9222 29.6187C19.1647 29.57 19.3872 29.4513 19.5609 29.2762L31.6597 17.1775L22.8209 8.33875ZM24.5884 6.57125L33.4272 15.41L35.6684 13.17C38.1097 10.7288 38.1097 6.77125 35.6684 4.33C34.4959 3.15875 32.9072 2.5 31.2497 2.5C29.5909 2.5 28.0022 3.15875 26.8297 4.33L24.5884 6.57125Z" fill="#2458A3"/>
<path fill-rule="evenodd" clip-rule="evenodd" d="M4.375 37.5H34.375C35.41 37.5 36.25 36.66 36.25 35.625C36.25 34.59 35.41 33.75 34.375 33.75H4.375C3.34 33.75 2.5 34.59 2.5 35.625C2.5 36.66 3.34 37.5 4.375 37.5Z" fill="#2458A3"/>
</svg>
